<svg width="52" height="52" viewBox="0 0 52 52" fill="none" xmlns="http://www.w3.org/2000/svg">
<g clip-path="url(#clip0_131_2995)">
<circle cx="26" cy="26" r="17.75" stroke="white" stroke-width="2.5"/>
<path fill-rule="evenodd" clip-rule="evenodd" d="M34.8388 28.9289L26.8839 36.8839C26.3957 37.372 25.6043 37.372 25.1161 36.8839L17.1612 28.9289C16.673 28.4408 16.673 27.6493 17.1612 27.1612C17.6493 26.673 18.4408 26.673 18.9289 27.1612L24.75 32.9822L24.75 17C24.75 16.3096 25.3096 15.75 26 15.75C26.6904 15.75 27.25 16.3096 27.25 17L27.25 32.9822L33.0711 27.1612C33.5592 26.673 34.3507 26.673 34.8388 27.1612C35.327 27.6493 35.327 28.4408 34.8388 28.9289Z" fill="white"/>
</g>
<defs>
<clipPath id="clip0_131_2995">
<rect width="52" height="52" fill="white"/>
</clipPath>
</defs>
</svg>
