<svg width="32" height="8" viewBox="0 0 32 8" fill="none" xmlns="http://www.w3.org/2000/svg">
<path fill-rule="evenodd" clip-rule="evenodd" d="M6.57148 4.00003C6.57148 5.73579 5.16438 7.14289 3.42862 7.14289C1.69287 7.14289 0.285767 5.73579 0.285767 4.00003C0.285767 2.26428 1.69287 0.857178 3.42862 0.857178C5.16438 0.857178 6.57148 2.26428 6.57148 4.00003ZM19.1429 4.00003C19.1429 5.73579 17.7358 7.14289 16.0001 7.14289C14.2643 7.14289 12.8572 5.73579 12.8572 4.00003C12.8572 2.26428 14.2643 0.857178 16.0001 0.857178C17.7358 0.857178 19.1429 2.26428 19.1429 4.00003ZM28.5715 7.14289C30.3072 7.14289 31.7143 5.73579 31.7143 4.00003C31.7143 2.26428 30.3072 0.857178 28.5715 0.857178C26.8357 0.857178 25.4286 2.26428 25.4286 4.00003C25.4286 5.73579 26.8357 7.14289 28.5715 7.14289Z" fill="white"/>
</svg>
