<svg width="64" height="62" viewBox="0 0 64 62" fill="none" xmlns="http://www.w3.org/2000/svg">
<circle opacity="0.2" cx="31" cy="31" r="31" fill="white"/>
<circle cx="56" cy="10" r="6.75" fill="#4077CA" stroke="black" stroke-width="1.5"/>
<path d="M35.4198 29.2808C34.6922 30.2174 34.4014 31.4723 34.4983 32.5997C34.5947 33.7217 35.1101 34.9892 36.3222 35.6517L41.9191 38.7108C42.0698 38.8492 42.2812 39.1047 42.4666 39.4254C42.5673 39.5994 42.644 39.7653 42.6932 39.9064C42.7174 39.9761 42.7325 40.0327 42.7411 40.0757C42.7493 40.1162 42.7499 40.1362 42.75 40.1379C42.75 40.138 42.75 40.138 42.75 40.1379V42.75H19.25V40.1379C19.25 40.138 19.25 40.138 19.25 40.1379C19.2501 40.1362 19.2508 40.1162 19.2589 40.0757C19.2675 40.0327 19.2826 39.9761 19.3068 39.9064C19.356 39.7653 19.4327 39.5994 19.5334 39.4254C19.7188 39.1047 19.9302 38.8492 20.0809 38.7108L25.6778 35.6517C26.8899 34.9892 27.4053 33.7217 27.5017 32.5997C27.5986 31.4723 27.3078 30.2174 26.5802 29.2808C25.1845 27.484 24.25 25.2544 24.25 23.7241C24.25 20.1896 27.2304 17.25 31 17.25C34.7696 17.25 37.75 20.1896 37.75 23.7241C37.75 25.2544 36.8155 27.484 35.4198 29.2808Z" stroke="#B3B3B3" stroke-width="2.5"/>
</svg>
